<svg width="640" height="640" viewBox="0 0 640 640" fill="none" xmlns="http://www.w3.org/2000/svg">
<path fill-rule="evenodd" clip-rule="evenodd" d="M504.413 377.059C529.591 381.915 556.958 387.194 579.165 377.342C568.505 257.115 456.757 162.541 320.475 162.541C177.145 162.541 60.9525 267.15 60.9525 396.192C60.9525 525.234 177.145 629.843 320.475 629.843C431.448 629.843 526.153 567.134 563.257 478.929C499.746 476.947 412.945 428.123 436.824 386.619C448.526 366.279 474.973 371.38 504.413 377.059ZM454.837 309.786C457.753 307.585 458.135 303.673 455.69 301.048C453.245 298.422 448.9 298.079 445.984 300.28C422.814 317.77 398.974 321.3 378.481 318.781C357.724 316.231 340.302 307.44 330.818 300.28C327.902 298.079 323.556 298.422 321.111 301.048C318.666 303.673 319.048 307.585 321.964 309.786C333.149 318.23 352.933 328.163 376.617 331.074C400.564 334.016 428.399 329.744 454.837 309.786Z" fill="#BF92D5"/>
<path fill-rule="evenodd" clip-rule="evenodd" d="M208.216 29.4824C235.506 22.4425 268.158 34.4101 289.318 61.7552C306.937 84.5246 312.236 112.331 305.628 135.23C278.338 142.27 245.686 130.303 224.526 102.958C206.907 80.1883 201.608 52.3817 208.216 29.4824Z" fill="#BF92D5"/>
<path fill-rule="evenodd" clip-rule="evenodd" d="M433.592 27.1645C406.302 20.1247 373.65 32.0922 352.49 59.4373C334.871 82.2067 329.572 110.013 336.18 132.913C363.47 139.952 396.122 127.985 417.282 100.64C434.901 77.8704 440.2 50.0638 433.592 27.1645Z" fill="#BF92D5"/>
</svg>
